<svg width="653" height="156" viewBox="0 0 653 156" fill="none" xmlns="http://www.w3.org/2000/svg">
<g clip-path="url(#clip0_289_989)">
<path d="M443.001 105.333C456.992 105.333 468.334 93.991 468.334 80C468.334 66.009 456.992 54.667 443.001 54.667C429.01 54.667 417.668 66.009 417.668 80C417.668 93.991 429.01 105.333 443.001 105.333Z" fill="#5777FF"/>
<path d="M442.999 94.292C450.892 94.292 457.291 87.8933 457.291 80C457.291 72.1068 450.892 65.708 442.999 65.708C435.106 65.708 428.707 72.1068 428.707 80C428.707 87.8933 435.106 94.292 442.999 94.292Z" fill="#4537AF"/>
<path d="M454.184 65.708H448.184V71.708H454.184V65.708Z" fill="white"/>
<path d="M443 130C433.111 130 423.444 127.068 415.222 121.573C406.999 116.079 400.59 108.27 396.806 99.1342C393.022 89.9979 392.031 79.9445 393.961 70.2455C395.89 60.5464 400.652 51.6373 407.645 44.6447C414.637 37.6521 423.546 32.89 433.245 30.9608C442.945 29.0315 452.998 30.0217 462.134 33.806C471.27 37.5904 479.079 43.9991 484.573 52.2215C490.068 60.444 493 70.1109 493 80C492.985 93.2563 487.712 105.965 478.339 115.339C468.965 124.712 456.256 129.985 443 130ZM443 38C434.693 38 426.573 40.4633 419.666 45.0783C412.759 49.6933 407.376 56.2528 404.197 63.9273C401.018 71.6018 400.186 80.0466 401.807 88.1938C403.428 96.341 407.428 103.825 413.302 109.698C419.175 115.572 426.659 119.572 434.806 121.193C442.953 122.814 451.398 121.982 459.073 118.803C466.747 115.624 473.307 110.241 477.922 103.334C482.537 96.4271 485 88.3068 485 80C484.987 68.8648 480.558 58.1892 472.685 50.3154C464.811 42.4416 454.135 38.0126 443 38Z" fill="#D9EDED"/>
</g>
<path d="M29.568 127H16.128C13.2267 127 11.3067 126.531 10.368 125.592C9.51467 124.653 9.088 122.691 9.088 119.704V39.576C9.088 38.04 9.51467 36.8027 10.368 35.864C11.2213 34.9253 12.3307 34.456 13.696 34.456H29.568V127ZM34.688 34.456H50.944C59.0507 34.456 64.4267 36.376 67.072 40.216C69.8027 43.9707 71.168 51.5653 71.168 63C71.168 70.5947 70.3147 76.5253 68.608 80.792C66.9867 85.0587 64.8107 87.9173 62.08 89.368C59.3493 90.7333 55.6373 91.416 50.944 91.416H34.688V79.256H44.16C46.3787 79.256 47.7867 78.9573 48.384 78.36C49.0667 77.7627 49.408 76.824 49.408 75.544V50.456C49.408 49.0907 49.0667 48.1093 48.384 47.512C47.7867 46.9147 46.3787 46.616 44.16 46.616H34.688V34.456ZM118.895 46.616H106.991C105.626 46.616 104.943 46.9573 104.943 47.64V127H91.503C88.6017 127 86.6817 126.531 85.743 125.592C84.8897 124.653 84.463 122.691 84.463 119.704V41.752C84.463 38.7653 84.8897 36.8027 85.743 35.864C86.6817 34.9253 88.6017 34.456 91.503 34.456H118.895V46.616ZM124.015 34.456H137.455C140.356 34.456 142.234 34.9253 143.087 35.864C144.026 36.8027 144.495 38.7653 144.495 41.752V119.576C144.495 122.563 144.026 124.568 143.087 125.592C142.148 126.531 140.271 127 137.455 127H124.015V84.12H110.063V71.96H124.015V34.456ZM183.833 34.584V71.32C183.833 72.6853 184.132 73.6667 184.729 74.264C185.412 74.8613 186.862 75.16 189.081 75.16H198.553V87.32H182.297C177.433 87.32 173.508 86.808 170.521 85.784C167.62 84.76 165.444 82.968 163.993 80.408C162.628 77.7627 161.732 74.9467 161.305 71.96C160.964 68.9733 160.793 64.9627 160.793 59.928C160.793 54.808 160.964 50.9253 161.305 48.28C161.732 45.6347 162.628 43.16 163.993 40.856C165.444 38.552 167.62 36.9307 170.521 35.992C173.508 35.0533 177.433 34.584 182.297 34.584H183.833ZM203.673 75.16H205.209C208.878 75.16 211.694 75.2453 213.657 75.416C215.705 75.5013 217.668 75.8853 219.545 76.568C221.422 77.1653 222.702 77.8907 223.385 78.744C224.153 79.5973 224.836 81.0907 225.433 83.224C226.116 85.272 226.5 87.4907 226.585 89.88C226.67 92.2693 226.713 95.6827 226.713 100.12C226.713 104.557 226.67 108.099 226.585 110.744C226.5 113.304 226.116 115.779 225.433 118.168C224.836 120.472 224.153 122.093 223.385 123.032C222.702 123.971 221.422 124.824 219.545 125.592C217.668 126.275 215.705 126.701 213.657 126.872C211.694 126.957 208.878 127 205.209 127H203.673V75.16ZM162.585 98.456H178.713C179.908 98.456 180.633 98.6267 180.889 98.968C181.145 99.3093 181.273 100.035 181.273 101.144V111.128C181.273 112.493 181.444 113.475 181.785 114.072C182.212 114.584 183.193 114.84 184.729 114.84H198.553V127H179.737C173.508 127 168.772 125.933 165.529 123.8C162.372 121.667 160.793 117.955 160.793 112.664V101.144C160.793 99.352 161.39 98.456 162.585 98.456ZM188.953 34.456H205.209C211.438 34.456 216.132 35.5227 219.289 37.656C222.532 39.7893 224.153 43.5013 224.153 48.792V60.312C224.153 62.104 223.556 63 222.361 63H206.233C205.038 63 204.313 62.8293 204.057 62.488C203.801 62.1467 203.673 61.4213 203.673 60.312V50.328C203.673 48.9627 203.46 48.024 203.033 47.512C202.692 46.9147 201.753 46.616 200.217 46.616H188.953V34.456ZM263.708 34.584V71.32C263.708 72.6853 264.007 73.6667 264.604 74.264C265.287 74.8613 266.737 75.16 268.956 75.16H278.428V87.32H262.172C257.308 87.32 253.383 86.808 250.396 85.784C247.495 84.76 245.319 82.968 243.868 80.408C242.503 77.7627 241.607 74.9467 241.18 71.96C240.839 68.9733 240.668 64.9627 240.668 59.928C240.668 54.808 240.839 50.9253 241.18 48.28C241.607 45.6347 242.503 43.16 243.868 40.856C245.319 38.552 247.495 36.9307 250.396 35.992C253.383 35.0533 257.308 34.584 262.172 34.584H263.708ZM283.548 75.16H285.084C288.753 75.16 291.569 75.2453 293.532 75.416C295.58 75.5013 297.543 75.8853 299.42 76.568C301.297 77.1653 302.577 77.8907 303.26 78.744C304.028 79.5973 304.711 81.0907 305.308 83.224C305.991 85.272 306.375 87.4907 306.46 89.88C306.545 92.2693 306.588 95.6827 306.588 100.12C306.588 104.557 306.545 108.099 306.46 110.744C306.375 113.304 305.991 115.779 305.308 118.168C304.711 120.472 304.028 122.093 303.26 123.032C302.577 123.971 301.297 124.824 299.42 125.592C297.543 126.275 295.58 126.701 293.532 126.872C291.569 126.957 288.753 127 285.084 127H283.548V75.16ZM242.46 98.456H258.588C259.783 98.456 260.508 98.6267 260.764 98.968C261.02 99.3093 261.148 100.035 261.148 101.144V111.128C261.148 112.493 261.319 113.475 261.66 114.072C262.087 114.584 263.068 114.84 264.604 114.84H278.428V127H259.612C253.383 127 248.647 125.933 245.404 123.8C242.247 121.667 240.668 117.955 240.668 112.664V101.144C240.668 99.352 241.265 98.456 242.46 98.456ZM268.828 34.456H285.084C291.313 34.456 296.007 35.5227 299.164 37.656C302.407 39.7893 304.028 43.5013 304.028 48.792V60.312C304.028 62.104 303.431 63 302.236 63H286.108C284.913 63 284.188 62.8293 283.932 62.488C283.676 62.1467 283.548 61.4213 283.548 60.312V50.328C283.548 48.9627 283.335 48.024 282.908 47.512C282.567 46.9147 281.628 46.616 280.092 46.616H268.828V34.456Z" fill="#5777FF"/>
<path d="M342.943 127H329.503C326.602 127 324.682 126.531 323.743 125.592C322.89 124.653 322.463 122.691 322.463 119.704V39.576C322.463 38.04 322.89 36.8027 323.743 35.864C324.596 34.9253 325.706 34.456 327.071 34.456H342.943V127ZM348.063 34.456H364.319C372.426 34.456 377.802 36.376 380.447 40.216C383.178 43.9707 384.543 51.5653 384.543 63C384.543 70.5947 383.69 76.5253 381.983 80.792C380.362 85.0587 378.186 87.9173 375.455 89.368C372.724 90.7333 369.012 91.416 364.319 91.416H348.063V79.256H357.535C359.754 79.256 361.162 78.9573 361.759 78.36C362.442 77.7627 362.783 76.824 362.783 75.544V50.456C362.783 49.0907 362.442 48.1093 361.759 47.512C361.162 46.9147 359.754 46.616 357.535 46.616H348.063V34.456ZM524.318 127H510.878C507.977 127 506.057 126.531 505.118 125.592C504.265 124.653 503.838 122.691 503.838 119.704V39.576C503.838 38.04 504.265 36.8027 505.118 35.864C505.971 34.9253 507.081 34.456 508.446 34.456H524.318V127ZM529.438 34.456H545.694C550.643 34.456 554.526 34.84 557.342 35.608C560.243 36.376 562.419 37.912 563.87 40.216C565.321 42.4347 566.217 44.952 566.558 47.768C566.985 50.4987 567.198 54.3813 567.198 59.416C567.198 64.4507 566.985 68.2907 566.558 70.936C566.217 73.5813 565.321 76.056 563.87 78.36C562.505 80.664 560.329 82.2853 557.342 83.224C554.441 84.1627 550.558 84.632 545.694 84.632H529.438V72.472H538.91C541.129 72.472 542.537 72.1733 543.134 71.576C543.817 70.9787 544.158 70.04 544.158 68.76V50.456C544.158 49.0907 543.817 48.1093 543.134 47.512C542.537 46.9147 541.129 46.616 538.91 46.616H529.438V34.456ZM541.726 88.6H557.598C560.158 88.6 561.993 89.3253 563.102 90.776C564.211 92.1413 564.766 94.4027 564.766 97.56V127H546.334C544.969 127 543.859 126.531 543.006 125.592C542.153 124.653 541.726 123.416 541.726 121.88V88.6ZM577.2 34.456H617.264C618.629 34.456 619.739 34.9253 620.592 35.864C621.445 36.8027 621.872 38.04 621.872 39.576V127H608.432C605.531 127 603.611 126.531 602.672 125.592C601.819 124.653 601.392 122.691 601.392 119.704V50.456H580.912C578.437 50.456 577.2 48.408 577.2 44.312V34.456ZM626.992 34.456H647.472C649.947 34.456 651.184 36.504 651.184 40.6V50.456H626.992V34.456Z" fill="white"/>
<defs>
<clipPath id="clip0_289_989">
<rect width="100" height="100" fill="white" transform="translate(393 30)"/>
</clipPath>
</defs>
</svg>
